<svg xmlns="http://www.w3.org/2000/svg" width="34.138" height="41.22" viewBox="0 0 34.138 41.22">
  <path id="Icon_awesome-angle-double-down" data-name="Icon awesome-angle-double-down" d="M14.806,23.286.727,9.682a2.334,2.334,0,0,1,0-3.391L3.067,4.03a2.536,2.536,0,0,1,3.509,0l9.98,9.643,9.98-9.643a2.536,2.536,0,0,1,3.509,0l2.36,2.251a2.334,2.334,0,0,1,0,3.391l-14.079,13.6A2.539,2.539,0,0,1,14.806,23.286Zm3.52,19.206,14.079-13.6a2.334,2.334,0,0,0,0-3.391l-2.34-2.261a2.536,2.536,0,0,0-3.509,0l-9.99,9.633-9.98-9.643a2.536,2.536,0,0,0-3.509,0L.727,25.487a2.334,2.334,0,0,0,0,3.391l14.079,13.6A2.539,2.539,0,0,0,18.326,42.493Z" transform="translate(0.503 -2.65)" fill="none" stroke="#fff" stroke-width="1"/>
</svg>
