<svg xmlns="http://www.w3.org/2000/svg" width="32.651" height="32.602" viewBox="0 0 32.651 32.602">
  <path id="Icon_simple-email" data-name="Icon simple-email" d="M34.3,15.047a15.342,15.342,0,0,1-.6,3.647,10.085,10.085,0,0,1-1.566,3.2,7.983,7.983,0,0,1-2.655,2.276,8.119,8.119,0,0,1-3.877.866,6.093,6.093,0,0,1-2.8-.621A4.585,4.585,0,0,1,20.9,22.658a6.228,6.228,0,0,1-5.08,2.31,5.676,5.676,0,0,1-2.533-.56,5.111,5.111,0,0,1-1.9-1.6,6.7,6.7,0,0,1-1.1-2.5,9.787,9.787,0,0,1-.144-3.264,14.007,14.007,0,0,1,1.1-4,10.72,10.72,0,0,1,2.03-3.062A8.393,8.393,0,0,1,19.453,7.35a11.623,11.623,0,0,1,2.029.157,8.966,8.966,0,0,1,1.575.428,8.855,8.855,0,0,1,1.305.623c.4.232.8.473,1.2.717l-.986,10.268a3.1,3.1,0,0,0,.029,1.2,1.627,1.627,0,0,0,.405.742,1.48,1.48,0,0,0,.657.387,2.638,2.638,0,0,0,2.308-.412,4.558,4.558,0,0,0,1.238-1.426,8.629,8.629,0,0,0,.833-2.143,13.388,13.388,0,0,0,.365-2.669,15.5,15.5,0,0,0-.463-4.987,9.551,9.551,0,0,0-2.038-3.859,9.442,9.442,0,0,0-3.654-2.485,14.487,14.487,0,0,0-5.323-.882A12.791,12.791,0,0,0,13.664,4.05a11.961,11.961,0,0,0-4,2.881,13.491,13.491,0,0,0-2.619,4.333,17.894,17.894,0,0,0-1.1,5.4A16.325,16.325,0,0,0,6.5,22.171,9.649,9.649,0,0,0,8.728,26.12a9.344,9.344,0,0,0,3.766,2.371,15.812,15.812,0,0,0,5.2.786,19.592,19.592,0,0,0,3.411-.332c.563-.1,1.1-.224,1.6-.359a12.923,12.923,0,0,0,1.382-.448l.713,2.905a8.278,8.278,0,0,1-1.546.693,16.088,16.088,0,0,1-1.827.479,19.613,19.613,0,0,1-3.816.387,21.915,21.915,0,0,1-6.957-1.015,12.982,12.982,0,0,1-5.071-3.019A12.4,12.4,0,0,1,2.54,23.583a19.364,19.364,0,0,1-.851-6.921,19.379,19.379,0,0,1,1.462-6.641A16.232,16.232,0,0,1,6.676,4.745a16.122,16.122,0,0,1,5.375-3.482A18.354,18.354,0,0,1,19.013,0a19.2,19.2,0,0,1,6.746,1.094A13.208,13.208,0,0,1,30.627,4.17a12.337,12.337,0,0,1,2.889,4.753A16.555,16.555,0,0,1,34.3,15.047Zm-19.323,2a6.324,6.324,0,0,0,.4,3.437,2.052,2.052,0,0,0,1.958,1.161A2.364,2.364,0,0,0,18,21.53a2.454,2.454,0,0,0,.772-.42,3.845,3.845,0,0,0,.783-.856,6.288,6.288,0,0,0,.72-1.446l.77-7.978a5.05,5.05,0,0,0-1.2-.143,4.5,4.5,0,0,0-1.991.414,3.806,3.806,0,0,0-1.411,1.214,6.789,6.789,0,0,0-.936,2,15.5,15.5,0,0,0-.531,2.73Z" transform="translate(-1.67)" fill="#fff"/>
</svg>
